<svg height='300px' width='300px'  fill="#fff941" xmlns="http://www.w3.org/2000/svg" xmlns:xlink="http://www.w3.org/1999/xlink" version="1.1" x="0px" y="0px" viewBox="0 0 100 100" enable-background="new 0 0 100 100" xml:space="preserve"><path d="M92,62.1c-4.04,0-5.737-4.751-7.379-9.345c-1.232-3.447-2.629-7.355-4.556-7.355s-3.323,3.908-4.556,7.355  c-1.642,4.594-3.339,9.345-7.379,9.345c-4.039,0-5.735-4.751-7.376-9.346c-1.23-3.447-2.626-7.354-4.55-7.354  c-1.926,0-3.321,3.907-4.552,7.354c-1.642,4.595-3.339,9.346-7.378,9.346c-4.039,0-5.735-4.751-7.375-9.346  c-1.231-3.447-2.626-7.354-4.55-7.354c-1.923,0-3.318,3.907-4.549,7.354c-1.64,4.595-3.336,9.346-7.374,9.346  c-4.039,0-5.735-4.751-7.376-9.346C11.82,49.307,10.424,45.4,8.5,45.4v-3c4.039,0,5.735,4.751,7.376,9.345  c1.231,3.447,2.626,7.354,4.551,7.354c1.923,0,3.318-3.907,4.548-7.354c1.64-4.595,3.336-9.346,7.374-9.346  c4.039,0,5.735,4.751,7.375,9.345c1.231,3.447,2.626,7.354,4.55,7.354c1.926,0,3.321-3.907,4.553-7.354  c1.641-4.595,3.338-9.345,7.377-9.345s5.735,4.751,7.376,9.345c1.23,3.447,2.626,7.354,4.55,7.354c1.927,0,3.322-3.907,4.555-7.354  c1.642-4.594,3.339-9.345,7.38-9.345s5.738,4.751,7.38,9.345C88.678,55.192,90.073,59.1,92,59.1V62.1z"></path></svg>